<mxfile host="app.diagrams.net" modified="2023-04-08T22:38:56.124Z" agent="Mozilla/5.0 (Windows NT 10.0; Win64; x64; rv:109.0) Gecko/20100101 Firefox/111.0" etag="lDn2pzmUA6XIKWX7Pc_Z" version="21.1.5" type="github">
  <diagram name="Page-1" id="tHgjiYx4E_OujyYQyAaN">
    <mxGraphModel dx="2074" dy="1114" grid="1" gridSize="10" guides="1" tooltips="1" connect="1" arrows="1" fold="1" page="1" pageScale="1" pageWidth="850" pageHeight="1100" math="0" shadow="0">
      <root>
        <mxCell id="0" />
        <mxCell id="1" parent="0" />
        <mxCell id="h_3be2ee29H7lXI4EeNd-1" value="&lt;div&gt;Raspberry pi 4B+&lt;/div&gt;" style="rounded=1;whiteSpace=wrap;html=1;" vertex="1" parent="1">
          <mxGeometry x="85" y="160" width="120" height="60" as="geometry" />
        </mxCell>
        <mxCell id="h_3be2ee29H7lXI4EeNd-2" value="Server web A" style="rounded=1;whiteSpace=wrap;html=1;fillColor=#f5f5f5;fontColor=#333333;strokeColor=#666666;" vertex="1" parent="1">
          <mxGeometry x="455" y="160" width="120" height="60" as="geometry" />
        </mxCell>
        <mxCell id="h_3be2ee29H7lXI4EeNd-3" value="&lt;div&gt;mail box&lt;/div&gt;" style="rounded=1;whiteSpace=wrap;html=1;fillColor=#f5f5f5;fontColor=#333333;strokeColor=#666666;" vertex="1" parent="1">
          <mxGeometry x="720" y="160" width="120" height="60" as="geometry" />
        </mxCell>
        <mxCell id="h_3be2ee29H7lXI4EeNd-4" value="" style="endArrow=classic;html=1;rounded=0;exitX=1;exitY=0.5;exitDx=0;exitDy=0;entryX=0;entryY=0.5;entryDx=0;entryDy=0;fillColor=#f5f5f5;strokeColor=#666666;" edge="1" parent="1" source="h_3be2ee29H7lXI4EeNd-2" target="h_3be2ee29H7lXI4EeNd-3">
          <mxGeometry width="50" height="50" relative="1" as="geometry">
            <mxPoint x="535" y="310" as="sourcePoint" />
            <mxPoint x="585" y="260" as="targetPoint" />
          </mxGeometry>
        </mxCell>
        <mxCell id="h_3be2ee29H7lXI4EeNd-5" value="" style="ellipse;whiteSpace=wrap;html=1;aspect=fixed;" vertex="1" parent="1">
          <mxGeometry x="135" y="70" width="20" height="20" as="geometry" />
        </mxCell>
        <mxCell id="h_3be2ee29H7lXI4EeNd-6" value="" style="triangle;whiteSpace=wrap;html=1;" vertex="1" parent="1">
          <mxGeometry x="135" y="260" width="20" height="30" as="geometry" />
        </mxCell>
        <mxCell id="h_3be2ee29H7lXI4EeNd-7" value="" style="endArrow=none;html=1;rounded=0;exitX=0.25;exitY=0;exitDx=0;exitDy=0;entryX=0;entryY=0.5;entryDx=0;entryDy=0;" edge="1" parent="1" source="h_3be2ee29H7lXI4EeNd-1" target="h_3be2ee29H7lXI4EeNd-5">
          <mxGeometry width="50" height="50" relative="1" as="geometry">
            <mxPoint x="365" y="310" as="sourcePoint" />
            <mxPoint x="415" y="260" as="targetPoint" />
            <Array as="points">
              <mxPoint x="115" y="80" />
            </Array>
          </mxGeometry>
        </mxCell>
        <mxCell id="h_3be2ee29H7lXI4EeNd-8" value="" style="endArrow=none;html=1;rounded=0;exitX=1;exitY=0.5;exitDx=0;exitDy=0;entryX=0.75;entryY=0;entryDx=0;entryDy=0;" edge="1" parent="1" source="h_3be2ee29H7lXI4EeNd-5" target="h_3be2ee29H7lXI4EeNd-1">
          <mxGeometry width="50" height="50" relative="1" as="geometry">
            <mxPoint x="365" y="310" as="sourcePoint" />
            <mxPoint x="415" y="260" as="targetPoint" />
            <Array as="points">
              <mxPoint x="175" y="80" />
            </Array>
          </mxGeometry>
        </mxCell>
        <mxCell id="h_3be2ee29H7lXI4EeNd-9" value="" style="endArrow=none;html=1;rounded=0;entryX=0.25;entryY=1;entryDx=0;entryDy=0;exitX=0;exitY=0.5;exitDx=0;exitDy=0;" edge="1" parent="1" source="h_3be2ee29H7lXI4EeNd-6" target="h_3be2ee29H7lXI4EeNd-1">
          <mxGeometry width="50" height="50" relative="1" as="geometry">
            <mxPoint x="365" y="310" as="sourcePoint" />
            <mxPoint x="415" y="260" as="targetPoint" />
            <Array as="points">
              <mxPoint x="115" y="275" />
            </Array>
          </mxGeometry>
        </mxCell>
        <mxCell id="h_3be2ee29H7lXI4EeNd-10" value="" style="endArrow=none;html=1;rounded=0;entryX=0.75;entryY=1;entryDx=0;entryDy=0;exitX=1;exitY=0.5;exitDx=0;exitDy=0;" edge="1" parent="1" source="h_3be2ee29H7lXI4EeNd-6" target="h_3be2ee29H7lXI4EeNd-1">
          <mxGeometry width="50" height="50" relative="1" as="geometry">
            <mxPoint x="365" y="310" as="sourcePoint" />
            <mxPoint x="415" y="260" as="targetPoint" />
            <Array as="points">
              <mxPoint x="175" y="275" />
            </Array>
          </mxGeometry>
        </mxCell>
        <mxCell id="h_3be2ee29H7lXI4EeNd-11" value="ampoule led" style="text;html=1;strokeColor=none;fillColor=none;align=center;verticalAlign=middle;whiteSpace=wrap;rounded=0;" vertex="1" parent="1">
          <mxGeometry x="115" y="290" width="60" height="30" as="geometry" />
        </mxCell>
        <mxCell id="h_3be2ee29H7lXI4EeNd-12" value="interrupteur" style="text;html=1;align=center;verticalAlign=middle;whiteSpace=wrap;rounded=0;" vertex="1" parent="1">
          <mxGeometry x="102.5" y="40" width="85" height="30" as="geometry" />
        </mxCell>
        <mxCell id="h_3be2ee29H7lXI4EeNd-20" value="&lt;div&gt;Raspberry pi 4B+&lt;/div&gt;" style="rounded=1;whiteSpace=wrap;html=1;fillColor=#f5f5f5;fontColor=#333333;strokeColor=#666666;" vertex="1" parent="1">
          <mxGeometry x="85" y="500" width="120" height="60" as="geometry" />
        </mxCell>
        <mxCell id="h_3be2ee29H7lXI4EeNd-21" value="Server web A" style="rounded=1;whiteSpace=wrap;html=1;" vertex="1" parent="1">
          <mxGeometry x="455" y="500" width="120" height="60" as="geometry" />
        </mxCell>
        <mxCell id="h_3be2ee29H7lXI4EeNd-22" value="&lt;div&gt;mail box&lt;/div&gt;" style="rounded=1;whiteSpace=wrap;html=1;fillColor=#f5f5f5;fontColor=#333333;strokeColor=#666666;" vertex="1" parent="1">
          <mxGeometry x="720" y="500" width="120" height="60" as="geometry" />
        </mxCell>
        <mxCell id="h_3be2ee29H7lXI4EeNd-23" value="" style="endArrow=classic;html=1;rounded=0;exitX=1;exitY=0.5;exitDx=0;exitDy=0;entryX=0;entryY=0.5;entryDx=0;entryDy=0;fillColor=#f5f5f5;strokeColor=#666666;" edge="1" parent="1" source="h_3be2ee29H7lXI4EeNd-21" target="h_3be2ee29H7lXI4EeNd-22">
          <mxGeometry width="50" height="50" relative="1" as="geometry">
            <mxPoint x="535" y="650" as="sourcePoint" />
            <mxPoint x="585" y="600" as="targetPoint" />
          </mxGeometry>
        </mxCell>
        <mxCell id="h_3be2ee29H7lXI4EeNd-24" value="" style="ellipse;whiteSpace=wrap;html=1;aspect=fixed;fillColor=#f5f5f5;fontColor=#333333;strokeColor=#666666;" vertex="1" parent="1">
          <mxGeometry x="135" y="410" width="20" height="20" as="geometry" />
        </mxCell>
        <mxCell id="h_3be2ee29H7lXI4EeNd-25" value="" style="triangle;whiteSpace=wrap;html=1;fillColor=#f5f5f5;fontColor=#333333;strokeColor=#666666;" vertex="1" parent="1">
          <mxGeometry x="135" y="600" width="20" height="30" as="geometry" />
        </mxCell>
        <mxCell id="h_3be2ee29H7lXI4EeNd-26" value="" style="endArrow=none;html=1;rounded=0;exitX=0.25;exitY=0;exitDx=0;exitDy=0;entryX=0;entryY=0.5;entryDx=0;entryDy=0;fillColor=#f5f5f5;strokeColor=#666666;" edge="1" parent="1" source="h_3be2ee29H7lXI4EeNd-20" target="h_3be2ee29H7lXI4EeNd-24">
          <mxGeometry width="50" height="50" relative="1" as="geometry">
            <mxPoint x="365" y="650" as="sourcePoint" />
            <mxPoint x="415" y="600" as="targetPoint" />
            <Array as="points">
              <mxPoint x="115" y="420" />
            </Array>
          </mxGeometry>
        </mxCell>
        <mxCell id="h_3be2ee29H7lXI4EeNd-27" value="" style="endArrow=none;html=1;rounded=0;exitX=1;exitY=0.5;exitDx=0;exitDy=0;entryX=0.75;entryY=0;entryDx=0;entryDy=0;fillColor=#f5f5f5;strokeColor=#666666;" edge="1" parent="1" source="h_3be2ee29H7lXI4EeNd-24" target="h_3be2ee29H7lXI4EeNd-20">
          <mxGeometry width="50" height="50" relative="1" as="geometry">
            <mxPoint x="365" y="650" as="sourcePoint" />
            <mxPoint x="415" y="600" as="targetPoint" />
            <Array as="points">
              <mxPoint x="175" y="420" />
            </Array>
          </mxGeometry>
        </mxCell>
        <mxCell id="h_3be2ee29H7lXI4EeNd-28" value="" style="endArrow=none;html=1;rounded=0;entryX=0.25;entryY=1;entryDx=0;entryDy=0;exitX=0;exitY=0.5;exitDx=0;exitDy=0;fillColor=#f5f5f5;strokeColor=#666666;" edge="1" parent="1" source="h_3be2ee29H7lXI4EeNd-25" target="h_3be2ee29H7lXI4EeNd-20">
          <mxGeometry width="50" height="50" relative="1" as="geometry">
            <mxPoint x="365" y="650" as="sourcePoint" />
            <mxPoint x="415" y="600" as="targetPoint" />
            <Array as="points">
              <mxPoint x="115" y="615" />
            </Array>
          </mxGeometry>
        </mxCell>
        <mxCell id="h_3be2ee29H7lXI4EeNd-29" value="" style="endArrow=none;html=1;rounded=0;entryX=0.75;entryY=1;entryDx=0;entryDy=0;exitX=1;exitY=0.5;exitDx=0;exitDy=0;fillColor=#f5f5f5;strokeColor=#666666;" edge="1" parent="1" source="h_3be2ee29H7lXI4EeNd-25" target="h_3be2ee29H7lXI4EeNd-20">
          <mxGeometry width="50" height="50" relative="1" as="geometry">
            <mxPoint x="365" y="650" as="sourcePoint" />
            <mxPoint x="415" y="600" as="targetPoint" />
            <Array as="points">
              <mxPoint x="175" y="615" />
            </Array>
          </mxGeometry>
        </mxCell>
        <mxCell id="h_3be2ee29H7lXI4EeNd-30" value="ampoule led" style="text;html=1;strokeColor=#666666;fillColor=#f5f5f5;align=center;verticalAlign=middle;whiteSpace=wrap;rounded=0;fontColor=#333333;" vertex="1" parent="1">
          <mxGeometry x="115" y="630" width="60" height="30" as="geometry" />
        </mxCell>
        <mxCell id="h_3be2ee29H7lXI4EeNd-31" value="interrupteur" style="text;html=1;strokeColor=#666666;fillColor=#f5f5f5;align=center;verticalAlign=middle;whiteSpace=wrap;rounded=0;fontColor=#333333;" vertex="1" parent="1">
          <mxGeometry x="97.5" y="380" width="95" height="30" as="geometry" />
        </mxCell>
        <mxCell id="h_3be2ee29H7lXI4EeNd-32" value="" style="endArrow=classic;html=1;rounded=0;exitX=1;exitY=0.5;exitDx=0;exitDy=0;entryX=0;entryY=0.5;entryDx=0;entryDy=0;fillColor=#f5f5f5;strokeColor=#666666;" edge="1" parent="1" source="h_3be2ee29H7lXI4EeNd-20" target="h_3be2ee29H7lXI4EeNd-38">
          <mxGeometry width="50" height="50" relative="1" as="geometry">
            <mxPoint x="355" y="530" as="sourcePoint" />
            <mxPoint x="300" y="530" as="targetPoint" />
          </mxGeometry>
        </mxCell>
        <mxCell id="h_3be2ee29H7lXI4EeNd-38" value="script" style="swimlane;fontStyle=0;childLayout=stackLayout;horizontal=1;startSize=30;horizontalStack=0;resizeParent=1;resizeParentMax=0;resizeLast=0;collapsible=1;marginBottom=0;whiteSpace=wrap;html=1;fillColor=#dae8fc;strokeColor=#6c8ebf;" vertex="1" parent="1">
          <mxGeometry x="282.5" y="485" width="172.5" height="90" as="geometry" />
        </mxCell>
        <mxCell id="h_3be2ee29H7lXI4EeNd-39" value="&lt;div&gt;Ecoute l&#39;addresse web A&lt;/div&gt;" style="text;strokeColor=none;fillColor=none;align=left;verticalAlign=middle;spacingLeft=4;spacingRight=4;overflow=hidden;points=[[0,0.5],[1,0.5]];portConstraint=eastwest;rotatable=0;whiteSpace=wrap;html=1;" vertex="1" parent="h_3be2ee29H7lXI4EeNd-38">
          <mxGeometry y="30" width="172.5" height="30" as="geometry" />
        </mxCell>
        <mxCell id="h_3be2ee29H7lXI4EeNd-40" value="&lt;div&gt;Insert le contenu dans une base de données&lt;/div&gt;" style="text;strokeColor=none;fillColor=none;align=left;verticalAlign=middle;spacingLeft=4;spacingRight=4;overflow=hidden;points=[[0,0.5],[1,0.5]];portConstraint=eastwest;rotatable=0;whiteSpace=wrap;html=1;" vertex="1" parent="h_3be2ee29H7lXI4EeNd-38">
          <mxGeometry y="60" width="172.5" height="30" as="geometry" />
        </mxCell>
        <mxCell id="h_3be2ee29H7lXI4EeNd-42" value="script" style="swimlane;fontStyle=0;childLayout=stackLayout;horizontal=1;startSize=30;horizontalStack=0;resizeParent=1;resizeParentMax=0;resizeLast=0;collapsible=1;marginBottom=0;whiteSpace=wrap;html=1;fillColor=#dae8fc;strokeColor=#6c8ebf;" vertex="1" parent="1">
          <mxGeometry x="205" y="130" width="172.5" height="120" as="geometry" />
        </mxCell>
        <mxCell id="h_3be2ee29H7lXI4EeNd-43" value="&lt;div&gt;écoute l&#39;interrupteur&lt;/div&gt;" style="text;strokeColor=none;fillColor=none;align=left;verticalAlign=middle;spacingLeft=4;spacingRight=4;overflow=hidden;points=[[0,0.5],[1,0.5]];portConstraint=eastwest;rotatable=0;whiteSpace=wrap;html=1;" vertex="1" parent="h_3be2ee29H7lXI4EeNd-42">
          <mxGeometry y="30" width="172.5" height="30" as="geometry" />
        </mxCell>
        <mxCell id="h_3be2ee29H7lXI4EeNd-44" value="&lt;div&gt;&lt;div&gt;+ allume la led&lt;/div&gt;&lt;/div&gt;" style="text;strokeColor=none;fillColor=none;align=left;verticalAlign=middle;spacingLeft=4;spacingRight=4;overflow=hidden;points=[[0,0.5],[1,0.5]];portConstraint=eastwest;rotatable=0;whiteSpace=wrap;html=1;" vertex="1" parent="h_3be2ee29H7lXI4EeNd-42">
          <mxGeometry y="60" width="172.5" height="30" as="geometry" />
        </mxCell>
        <mxCell id="h_3be2ee29H7lXI4EeNd-45" value="+ appelle l&#39;addresse web A" style="text;strokeColor=none;fillColor=none;align=left;verticalAlign=middle;spacingLeft=4;spacingRight=4;overflow=hidden;points=[[0,0.5],[1,0.5]];portConstraint=eastwest;rotatable=0;whiteSpace=wrap;html=1;" vertex="1" parent="h_3be2ee29H7lXI4EeNd-42">
          <mxGeometry y="90" width="172.5" height="30" as="geometry" />
        </mxCell>
        <mxCell id="h_3be2ee29H7lXI4EeNd-46" value="" style="endArrow=classic;html=1;rounded=0;exitX=1.003;exitY=0;exitDx=0;exitDy=0;entryX=0;entryY=0.5;entryDx=0;entryDy=0;exitPerimeter=0;fillColor=#f5f5f5;strokeColor=#666666;" edge="1" parent="1" source="h_3be2ee29H7lXI4EeNd-44" target="h_3be2ee29H7lXI4EeNd-2">
          <mxGeometry width="50" height="50" relative="1" as="geometry">
            <mxPoint x="400" y="590" as="sourcePoint" />
            <mxPoint x="450" y="540" as="targetPoint" />
          </mxGeometry>
        </mxCell>
        <mxCell id="h_3be2ee29H7lXI4EeNd-64" value="&lt;div&gt;Raspberry pi 4B+&lt;/div&gt;" style="rounded=1;whiteSpace=wrap;html=1;fillColor=#f5f5f5;fontColor=#333333;strokeColor=#666666;" vertex="1" parent="1">
          <mxGeometry x="85" y="880" width="120" height="60" as="geometry" />
        </mxCell>
        <mxCell id="h_3be2ee29H7lXI4EeNd-65" value="Server web A" style="rounded=1;whiteSpace=wrap;html=1;" vertex="1" parent="1">
          <mxGeometry x="455" y="880" width="120" height="60" as="geometry" />
        </mxCell>
        <mxCell id="h_3be2ee29H7lXI4EeNd-66" value="&lt;div&gt;mail box&lt;/div&gt;" style="rounded=1;whiteSpace=wrap;html=1;" vertex="1" parent="1">
          <mxGeometry x="720" y="880" width="120" height="60" as="geometry" />
        </mxCell>
        <mxCell id="h_3be2ee29H7lXI4EeNd-67" value="" style="endArrow=classic;html=1;rounded=0;exitX=1.014;exitY=0;exitDx=0;exitDy=0;entryX=0;entryY=0.5;entryDx=0;entryDy=0;fillColor=#f5f5f5;strokeColor=#666666;exitPerimeter=0;" edge="1" parent="1" source="h_3be2ee29H7lXI4EeNd-84" target="h_3be2ee29H7lXI4EeNd-66">
          <mxGeometry width="50" height="50" relative="1" as="geometry">
            <mxPoint x="575" y="1030" as="sourcePoint" />
            <mxPoint x="625" y="980" as="targetPoint" />
          </mxGeometry>
        </mxCell>
        <mxCell id="h_3be2ee29H7lXI4EeNd-68" value="" style="ellipse;whiteSpace=wrap;html=1;aspect=fixed;fillColor=#f5f5f5;fontColor=#333333;strokeColor=#666666;" vertex="1" parent="1">
          <mxGeometry x="135" y="790" width="20" height="20" as="geometry" />
        </mxCell>
        <mxCell id="h_3be2ee29H7lXI4EeNd-69" value="" style="triangle;whiteSpace=wrap;html=1;fillColor=#f5f5f5;fontColor=#333333;strokeColor=#666666;" vertex="1" parent="1">
          <mxGeometry x="135" y="980" width="20" height="30" as="geometry" />
        </mxCell>
        <mxCell id="h_3be2ee29H7lXI4EeNd-70" value="" style="endArrow=none;html=1;rounded=0;exitX=0.25;exitY=0;exitDx=0;exitDy=0;entryX=0;entryY=0.5;entryDx=0;entryDy=0;fillColor=#f5f5f5;strokeColor=#666666;" edge="1" parent="1" source="h_3be2ee29H7lXI4EeNd-64" target="h_3be2ee29H7lXI4EeNd-68">
          <mxGeometry width="50" height="50" relative="1" as="geometry">
            <mxPoint x="365" y="1030" as="sourcePoint" />
            <mxPoint x="415" y="980" as="targetPoint" />
            <Array as="points">
              <mxPoint x="115" y="800" />
            </Array>
          </mxGeometry>
        </mxCell>
        <mxCell id="h_3be2ee29H7lXI4EeNd-71" value="" style="endArrow=none;html=1;rounded=0;exitX=1;exitY=0.5;exitDx=0;exitDy=0;entryX=0.75;entryY=0;entryDx=0;entryDy=0;fillColor=#f5f5f5;strokeColor=#666666;" edge="1" parent="1" source="h_3be2ee29H7lXI4EeNd-68" target="h_3be2ee29H7lXI4EeNd-64">
          <mxGeometry width="50" height="50" relative="1" as="geometry">
            <mxPoint x="365" y="1030" as="sourcePoint" />
            <mxPoint x="415" y="980" as="targetPoint" />
            <Array as="points">
              <mxPoint x="175" y="800" />
            </Array>
          </mxGeometry>
        </mxCell>
        <mxCell id="h_3be2ee29H7lXI4EeNd-72" value="" style="endArrow=none;html=1;rounded=0;entryX=0.25;entryY=1;entryDx=0;entryDy=0;exitX=0;exitY=0.5;exitDx=0;exitDy=0;fillColor=#f5f5f5;strokeColor=#666666;" edge="1" parent="1" source="h_3be2ee29H7lXI4EeNd-69" target="h_3be2ee29H7lXI4EeNd-64">
          <mxGeometry width="50" height="50" relative="1" as="geometry">
            <mxPoint x="365" y="1030" as="sourcePoint" />
            <mxPoint x="415" y="980" as="targetPoint" />
            <Array as="points">
              <mxPoint x="115" y="995" />
            </Array>
          </mxGeometry>
        </mxCell>
        <mxCell id="h_3be2ee29H7lXI4EeNd-73" value="" style="endArrow=none;html=1;rounded=0;entryX=0.75;entryY=1;entryDx=0;entryDy=0;exitX=1;exitY=0.5;exitDx=0;exitDy=0;fillColor=#f5f5f5;strokeColor=#666666;" edge="1" parent="1" source="h_3be2ee29H7lXI4EeNd-69" target="h_3be2ee29H7lXI4EeNd-64">
          <mxGeometry width="50" height="50" relative="1" as="geometry">
            <mxPoint x="365" y="1030" as="sourcePoint" />
            <mxPoint x="415" y="980" as="targetPoint" />
            <Array as="points">
              <mxPoint x="175" y="995" />
            </Array>
          </mxGeometry>
        </mxCell>
        <mxCell id="h_3be2ee29H7lXI4EeNd-74" value="ampoule led" style="text;html=1;strokeColor=#666666;fillColor=#f5f5f5;align=center;verticalAlign=middle;whiteSpace=wrap;rounded=0;fontColor=#333333;" vertex="1" parent="1">
          <mxGeometry x="115" y="1010" width="60" height="30" as="geometry" />
        </mxCell>
        <mxCell id="h_3be2ee29H7lXI4EeNd-75" value="interrupteur" style="text;html=1;strokeColor=#666666;fillColor=#f5f5f5;align=center;verticalAlign=middle;whiteSpace=wrap;rounded=0;fontColor=#333333;" vertex="1" parent="1">
          <mxGeometry x="97.5" y="760" width="95" height="30" as="geometry" />
        </mxCell>
        <mxCell id="h_3be2ee29H7lXI4EeNd-76" value="" style="endArrow=classic;html=1;rounded=0;exitX=1;exitY=0.5;exitDx=0;exitDy=0;entryX=0;entryY=0.5;entryDx=0;entryDy=0;fillColor=#f5f5f5;strokeColor=#666666;" edge="1" parent="1" source="h_3be2ee29H7lXI4EeNd-64" target="h_3be2ee29H7lXI4EeNd-65">
          <mxGeometry width="50" height="50" relative="1" as="geometry">
            <mxPoint x="355" y="910" as="sourcePoint" />
            <mxPoint x="280.08500000000004" y="910" as="targetPoint" />
          </mxGeometry>
        </mxCell>
        <mxCell id="h_3be2ee29H7lXI4EeNd-81" value="script" style="swimlane;fontStyle=0;childLayout=stackLayout;horizontal=1;startSize=30;horizontalStack=0;resizeParent=1;resizeParentMax=0;resizeLast=0;collapsible=1;marginBottom=0;whiteSpace=wrap;html=1;fillColor=#dae8fc;strokeColor=#6c8ebf;" vertex="1" parent="1">
          <mxGeometry x="575" y="880" width="110" height="60" as="geometry" />
        </mxCell>
        <mxCell id="h_3be2ee29H7lXI4EeNd-84" value="Envoie un mail" style="text;strokeColor=none;fillColor=none;align=left;verticalAlign=middle;spacingLeft=4;spacingRight=4;overflow=hidden;points=[[0,0.5],[1,0.5]];portConstraint=eastwest;rotatable=0;whiteSpace=wrap;html=1;" vertex="1" parent="h_3be2ee29H7lXI4EeNd-81">
          <mxGeometry y="30" width="110" height="30" as="geometry" />
        </mxCell>
      </root>
    </mxGraphModel>
  </diagram>
</mxfile>
